Coordinates
version=1
nRows=15
nColumns=42
inDegrees=yes

Units are S.I. units (second, meters, Newtons, ...)
If the header above contains a line with 'inDegrees', this indicates whether rotational values are in degrees (yes) or radians (no).

endheader
time	pelvis_tilt	pelvis_list	pelvis_rotation	pelvis_tx	pelvis_ty	pelvis_tz	hip_flexion_r	hip_adduction_r	hip_rotation_r	knee_angle_r	knee_adduction_r	knee_angle_r_beta	ankle_angle_r	subtalar_angle_r	mtp_angle_r	hip_flexion_l	hip_adduction_l	hip_rotation_l	knee_angle_l	knee_adduction_l	knee_angle_l_beta	ankle_angle_l	subtalar_angle_l	mtp_angle_l	lumbar_extension	lumbar_bending	lumbar_rotation	arm_flex_r	arm_add_r	arm_rot_r	elbow_flex_r	pro_sup_r	wrist_flex_r	wrist_dev_r	arm_flex_l	arm_add_l	arm_rot_l	elbow_flex_l	pro_sup_l	wrist_flex_l	wrist_dev_l
      0.72000000	      7.54907880	      1.35873984	    -11.86066093	      0.04292686	      0.81411901	     -0.32489512	      3.83821560	    -10.32168480	     -4.87574216	     70.69374195	     -6.92558090	      1.23383856	     -0.46620731	     -9.89172341	     -7.52838328	     16.22810753	      2.02883095	    -24.46161305	     35.70610433	     -6.42578018	      0.62318908	     20.07099482	      7.50491466	     -7.52838328	    -21.14822694	     -4.03421012	     10.68868540	      9.98202647	    -21.02248052	      6.43546396	     41.43216443	     90.00000001	      0.00000000	      0.00000000	     -9.91768993	     -5.19551735	    -53.53834325	     22.90547952	     90.00000001	      0.00000000	      0.00000000
      0.73000000	      7.40712056	      1.15171115	    -11.92678759	      0.05705049	      0.81700478	     -0.32524569	      6.54913894	     -9.51607713	     -4.83228586	     71.50572627	     -7.54099675	      1.24801036	      1.09425291	    -10.84265540	     -7.52756573	     14.51535603	      2.19113152	    -24.90088038	     34.38734038	     -6.44123101	      0.60017231	     20.66532848	      8.28833325	     -7.52756573	    -21.16584618	     -3.61084512	     10.36219729	      9.53892475	    -20.84117774	      6.37068506	     41.16746315	     90.00000001	      0.00000000	      0.00000000	     -8.94051652	     -4.79707467	    -52.50387317	     23.45466713	     90.00000001	      0.00000000	      0.00000000
      0.74000000	      7.25666600	      0.68525618	    -11.94842042	      0.07118192	      0.81985103	     -0.32544105	      9.00144231	     -8.31362762	     -4.76905539	     71.67198254	     -7.92722876	      1.25091208	      2.24033868	    -11.86223912	     -7.51867990	     12.83604154	      1.81460384	    -26.41534425	     33.17230845	     -6.72116839	      0.57896600	     21.80588876	     11.50066763	     -7.51867990	    -21.20683185	     -2.88141534	     10.02092670	      9.27141087	    -20.35362480	      5.34146660	     40.53873278	     90.00000001	      0.00000000	      0.00000000	    -10.04183966	     -4.79119202	    -41.09900491	     25.69048623	     90.00000001	      0.00000000	      0.00000000
      0.75000000	      6.97308474	      0.23076649	    -11.92278297	      0.08513957	      0.82256931	     -0.32576202	     11.47527046	     -7.10991280	     -4.90628846	     71.29141506	     -8.25778801	      1.24426992	      3.21730796	    -11.86476003	     -7.51836641	     11.17929691	      1.64381552	    -26.73122633	     31.77565508	     -6.56827640	      0.55458980	     21.99660930	     11.71442857	     -7.51836641	    -21.09433264	     -2.10640979	      9.59667946	      8.88321776	    -20.20964980	      5.37214874	     40.40203346	     90.00000001	      0.00000000	      0.00000000	     -9.01874450	     -4.35588296	    -40.72294697	     26.25915903	     90.00000001	      0.00000000	      0.00000000
      0.76000000	      6.93384456	     -0.30242742	    -11.73331599	      0.09935628	      0.82521064	     -0.32598526	     13.40931035	     -5.98952222	     -6.30094927	     70.22109158	     -9.26950824	      1.22558925	      5.04985443	    -11.64021563	     -7.51360005	      9.29708502	      1.16375692	    -28.22776776	     30.44548548	     -6.65025211	      0.53137396	     23.22671482	     15.66946394	     -7.51360005	    -21.22080837	     -1.28718995	      9.11869860	      8.60837149	    -19.86141987	      4.67083336	     39.61741779	     90.00000001	      0.00000000	      0.00000000	     -9.00810160	     -4.42589779	    -34.99640684	     28.03009609	     90.00000001	      0.00000000	      0.00000000
      0.77000000	      6.78825167	     -0.83081294	    -11.48786665	      0.11347089	      0.82749902	     -0.32625364	     15.30504079	     -4.87291145	     -7.73955271	     68.64859882	    -10.11817355	      1.19814408	      6.37655603	    -10.70520576	     -7.51217705	      7.49483742	      0.72108286	    -29.13190970	     29.10039942	     -6.44662796	      0.50789778	     23.83196164	     17.76332146	     -7.51217705	    -21.21159903	     -0.42790216	      8.50319174	      8.39317161	    -19.62695632	      4.43444135	     38.95022109	     90.00000001	      0.00000000	      0.00000000	     -8.33680477	     -4.21001245	    -33.32364352	     29.31653956	     90.00000001	      0.00000000	      0.00000000
      0.78000000	      6.67132120	     -1.30847874	    -11.16725688	      0.12757800	      0.82943995	     -0.32653710	     16.99149633	     -3.89967772	     -9.24398180	     66.62261523	    -10.74781457	      1.16278399	      7.52783633	     -9.68900310	     -7.50997860	      5.68570636	      0.26625881	    -30.08748145	     27.80785948	     -6.12569479	      0.48533871	     24.41658401	     19.91715724	     -7.50997860	    -21.20180914	      0.38020315	      7.83795689	      8.09058142	    -19.33812094	      3.73181517	     38.54490896	     90.00000001	      0.00000000	      0.00000000	     -8.03055622	     -4.32088417	    -29.50668024	     30.95641141	     90.00000001	      0.00000000	      0.00000000
      0.79000000	      6.39188621	     -1.73177020	    -10.76409959	      0.14153951	      0.83085058	     -0.32688341	     18.66948075	     -2.89250555	     -9.98270094	     64.25976206	    -10.62439226	      1.12154442	      8.08611328	     -9.53551401	     -7.50978497	      4.07856973	     -0.01986559	    -30.34756305	     26.47372280	     -5.72508079	      0.46205363	     24.49966012	     20.24740338	     -7.50978497	    -21.00240690	      1.17213306	      7.08081613	      7.63408600	    -19.24318383	      3.69262653	     38.36178882	     90.00000001	      0.00000000	      0.00000000	     -6.96878809	     -4.15279657	    -29.07391222	     31.85959095	     90.00000001	      0.00000000	      0.00000000
      0.80000000	      6.44588650	     -2.16433546	    -10.15001221	      0.15587357	      0.83190419	     -0.32712226	     19.82409579	     -2.26886194	    -12.85746928	     61.28368186	    -11.77102265	      1.06960203	      9.37112094	     -7.17522610	     -7.50869321	      2.26446583	     -0.69173962	    -31.86259067	     25.58148508	     -5.35229250	      0.44648114	     25.33482670	     23.99662556	     -7.50869321	    -21.11257820	      1.90764178	      6.06266481	      7.56540536	    -18.80952348	      2.82017568	     37.49335607	     90.00000001	      0.00000000	      0.00000000	     -7.01756105	     -4.52253718	    -25.29229683	     34.69510173	     90.00000001	      0.00000000	      0.00000000
      0.81000000	      6.38244841	     -2.47067756	     -9.57062470	      0.17006566	      0.83235204	     -0.32731987	     20.98234891	     -1.69978791	    -14.57749675	     58.16561853	    -11.91317936	      1.01518155	     10.14589874	     -5.97855644	     -7.50752107	      0.60697352	     -1.18014135	    -32.83451965	     24.71295971	     -4.79597835	      0.43132251	     25.75166839	     25.89513007	     -7.50752107	    -21.05506565	      2.50213734	      5.12673210	      7.25034838	    -18.43303397	      1.91118123	     37.08131198	     90.00000001	      0.00000000	      0.00000000	     -6.75491880	     -5.08180113	    -21.69039020	     36.97217156	     90.00000001	      0.00000000	      0.00000000
      0.82000000	      6.18659707	     -2.59332201	     -8.98602772	      0.18419002	      0.83223562	     -0.32767309	     22.14623263	     -1.29939110	    -15.42436393	     54.87752704	    -11.32075875	      0.95779353	     10.42874390	     -6.01691327	     -7.50737245	     -0.80876967	     -1.26979928	    -33.13877279	     23.82423098	     -4.34637666	      0.41581127	     25.84066337	     26.02586726	     -7.50737245	    -20.80345246	      2.94220302	      4.12921779	      6.80872303	    -18.36863760	      1.81928506	     36.94794850	     90.00000001	      0.00000000	      0.00000000	     -5.72950105	     -5.16220586	    -21.28533281	     38.08043529	     90.00000001	      0.00000000	      0.00000000
      0.83000000	      6.22690322	     -2.72345194	     -8.25005337	      0.19864742	      0.83162098	     -0.32791780	     22.99152256	     -1.21774445	    -17.98119668	     51.28584686	    -11.59912779	      0.89510689	     11.41596240	     -3.75715571	     -7.50646900	     -2.32590636	     -1.71898859	    -34.38412144	     23.44497545	     -3.85800220	      0.40919201	     26.48716699	     28.64280704	     -7.50646900	    -20.77036002	      3.33980127	      2.95470205	      6.65313449	    -17.90233692	      0.65772738	     36.25642629	     90.00000001	      0.00000000	      0.00000000	     -5.87577015	     -6.04494651	    -17.63937969	     41.53986081	     90.00000001	      0.00000000	      0.00000000
      0.84000000	      6.15591070	     -2.69902480	     -7.60356834	      0.21302375	      0.83058884	     -0.32818213	     23.78968403	     -1.13036014	    -19.15748997	     47.61144516	    -10.99212138	      0.83097648	     11.68490205	     -3.55424147	     -7.50628764	     -3.74650330	     -1.76214264	    -34.68246828	     22.88338480	     -3.30876213	      0.39939041	     26.68931801	     28.81307458	     -7.50628764	    -20.58258094	      3.57869953	      1.92635709	      6.17429040	    -17.83728833	      0.45576634	     36.08341699	     90.00000001	      0.00000000	      0.00000000	     -4.96230160	     -6.24634435	    -17.12241397	     43.15991745	     90.00000001	      0.00000000	      0.00000000
      0.85000000	      6.05768448	     -2.50260506	     -6.91975989	      0.22744568	      0.82885967	     -0.32851737	     24.70229318	     -1.54435988	    -21.69946011	     43.93050553	    -10.91710581	      0.76673196	     12.81167001	     -0.39517884	     -7.50567594	     -4.82486905	     -1.72875307	    -35.68185669	     22.80231609	     -3.19119510	      0.39797549	     27.20436676	     30.37027671	     -7.50567594	    -20.34592735	      3.61550356	      0.77184340	      5.93002450	    -17.48793437	     -0.56622383	     35.57045749	     90.00000001	      0.00000000	      0.00000000	     -4.90164898	     -7.09291497	    -14.64507603	     46.55209749	     90.00000001	      0.00000000	      0.00000000
      0.86000000	      5.94248693	     -2.25364519	     -6.27297917	      0.24191939	      0.82685665	     -0.32882059	     25.49739316	     -1.98998493	    -23.83166272	     40.22780070	    -10.46651772	      0.70210757	     13.60468573	      2.22036446	     -7.50521775	     -5.92710578	     -1.53337133	    -36.14918526	     22.61351035	     -3.00661742	      0.39468021	     27.57929781	     30.95268194	     -7.50521775	    -20.08141972	      3.59479792	     -0.26044178	      5.51011820	    -17.30509122	     -1.31400407	     35.32855876	     90.00000001	      0.00000000	      0.00000000	     -4.31273240	     -7.67157965	    -13.39861424	     49.04078995	     90.00000001	      0.00000000	      0.00000000
